<svg xmlns="http://www.w3.org/2000/svg" xmlns:xlink="http://www.w3.org/1999/xlink" width="500" zoomAndPan="magnify" viewBox="0 0 375 374.999991" height="500" preserveAspectRatio="xMidYMid meet" version="1.0"><defs><g/><clipPath id="661f413db2"><path d="M 29.894531 29.917969 L 344.894531 29.917969 L 344.894531 344.917969 L 29.894531 344.917969 Z M 29.894531 29.917969 " clip-rule="nonzero"/></clipPath><clipPath id="6ab15878ed"><path d="M 187.472656 29.917969 C 100.445312 29.917969 29.894531 100.46875 29.894531 187.496094 C 29.894531 274.523438 100.445312 345.070312 187.472656 345.070312 C 274.496094 345.070312 345.046875 274.523438 345.046875 187.496094 C 345.046875 100.46875 274.496094 29.917969 187.472656 29.917969 Z M 187.472656 29.917969 " clip-rule="nonzero"/></clipPath><clipPath id="a2797a6c22"><path d="M 62.398438 62.421875 L 312.546875 62.421875 L 312.546875 312.570312 L 62.398438 312.570312 Z M 62.398438 62.421875 " clip-rule="nonzero"/></clipPath><clipPath id="c940a68bf3"><path d="M 187.472656 62.421875 C 118.394531 62.421875 62.398438 118.417969 62.398438 187.496094 C 62.398438 256.574219 118.394531 312.570312 187.472656 312.570312 C 256.550781 312.570312 312.546875 256.574219 312.546875 187.496094 C 312.546875 118.417969 256.550781 62.421875 187.472656 62.421875 Z M 187.472656 62.421875 " clip-rule="nonzero"/></clipPath></defs><rect x="-37.5" width="450" fill="#ffffff" y="-37.499999" height="449.999989" fill-opacity="1"/><rect x="-37.5" width="450" fill="#faf7f5" y="-37.499999" height="449.999989" fill-opacity="1"/><g clip-path="url(#661f413db2)"><g clip-path="url(#6ab15878ed)"><path stroke-linecap="butt" transform="matrix(0.75, 0, 0, 0.75, 29.894808, 29.918785)" fill="none" stroke-linejoin="miter" d="M 210.103811 -0.00108854 C 94.067345 -0.00108854 -0.000369503 94.066626 -0.000369503 210.103092 C -0.000369503 326.139558 94.067345 420.202064 210.103811 420.202064 C 326.135069 420.202064 420.202783 326.139558 420.202783 210.103092 C 420.202783 94.066626 326.135069 -0.00108854 210.103811 -0.00108854 Z M 210.103811 -0.00108854 " stroke="#000000" stroke-width="2" stroke-opacity="1" stroke-miterlimit="4"/></g></g><g clip-path="url(#a2797a6c22)"><g clip-path="url(#c940a68bf3)"><path stroke-linecap="butt" transform="matrix(0.75, 0, 0, 0.75, 62.398272, 62.422246)" fill="none" stroke-linejoin="miter" d="M 166.765856 -0.000495068 C 74.661683 -0.000495068 0.00022013 74.660968 0.00022013 166.765141 C 0.00022013 258.869314 74.661683 333.530777 166.765856 333.530777 C 258.870029 333.530777 333.531492 258.869314 333.531492 166.765141 C 333.531492 74.660968 258.870029 -0.000495068 166.765856 -0.000495068 Z M 166.765856 -0.000495068 " stroke="#000000" stroke-width="2" stroke-opacity="1" stroke-miterlimit="4"/></g></g><path fill="#faf7f5" d="M 124.722656 139.054688 L 249.089844 139.054688 C 254.414062 139.054688 259.519531 141.171875 263.285156 144.933594 C 267.046875 148.699219 269.164062 153.804688 269.164062 159.128906 L 269.164062 199.269531 C 269.164062 204.59375 267.046875 209.699219 263.285156 213.464844 C 259.519531 217.230469 254.414062 219.34375 249.089844 219.34375 L 124.722656 219.34375 C 113.636719 219.34375 104.652344 210.355469 104.652344 199.269531 L 104.652344 159.128906 C 104.652344 148.042969 113.636719 139.054688 124.722656 139.054688 Z M 124.722656 139.054688 " fill-opacity="1" fill-rule="nonzero"/><g fill="#8e2f26" fill-opacity="1"><g transform="translate(115.174584, 202.824625)"><g><path d="M 42.265625 -7.484375 L 29.71875 -39.171875 C 28.484375 -42.265625 28.359375 -42.984375 28.359375 -43.34375 L 21.34375 -39.59375 L 20.21875 -38.9375 L 20.328125 -37.21875 L 7.3125 -7.1875 C 5.109375 -2.078125 3.6875 -0.953125 1.1875 -0.234375 L 1.1875 0 L 12.125 0 L 12.125 -0.234375 C 8.796875 -0.953125 6.421875 -2.015625 8.625 -7.140625 L 9.921875 -10.109375 L 32.640625 -10.109375 L 33.828125 -7.140625 C 35.90625 -1.90625 33.53125 -0.59375 29.375 -0.234375 L 29.375 0 L 48.15625 0 L 48.15625 -0.234375 C 45.484375 -0.59375 44.40625 -2.015625 42.265625 -7.484375 Z M 10.34375 -11.171875 L 21.703125 -37.390625 L 32.21875 -11.171875 Z M 10.34375 -11.171875 "/></g></g></g><g fill="#1b1751" fill-opacity="1"><g transform="translate(167.498803, 202.824625)"><g><path d="M 2.265625 -41.609375 L 2.265625 -41.3125 C 4.875 -41.015625 6.953125 -40.375 6.953125 -38.234375 L 6.953125 -1.1875 C 6.953125 6.25 5.34375 9.875 -0.296875 12.609375 L -0.171875 12.71875 C 6.546875 10.828125 12.3125 6.484375 15.453125 2.140625 C 15.15625 0.296875 15.09375 -2.203125 15.09375 -5.890625 L 15.09375 -38.234375 C 15.09375 -40.375 17.1875 -41.015625 19.625 -41.3125 L 19.625 -41.609375 Z M 2.265625 -41.609375 "/></g></g></g><g fill="#1d321e" fill-opacity="1"><g transform="translate(190.983176, 202.824625)"><g><path d="M 55.53125 -41.609375 L 55.53125 -41.375 C 58.859375 -40.671875 61.0625 -39.65625 59.03125 -34.484375 L 47.5625 -5 L 36.4375 -34.484375 C 34.421875 -39.78125 36.734375 -41.015625 40.90625 -41.375 L 40.90625 -41.609375 L 24.078125 -41.609375 C 24.96875 -40.84375 26.09375 -39.125 26.6875 -37.578125 L 32.109375 -23.65625 L 24.671875 -5 L 13.5625 -34.484375 C 11.53125 -39.78125 13.859375 -41.015625 18.015625 -41.375 L 18.015625 -41.609375 L 1.1875 -41.609375 C 2.078125 -40.84375 3.203125 -39.125 3.8125 -37.578125 L 18.78125 1.015625 L 18.609375 2.265625 L 24.796875 -2.015625 L 32.765625 -21.9375 L 41.671875 1.015625 L 41.5 2.265625 L 47.6875 -2.015625 L 60.34375 -34.421875 C 62.359375 -39.59375 63.96875 -40.671875 66.46875 -41.375 L 66.46875 -41.609375 Z M 55.53125 -41.609375 "/></g></g></g><g fill="#1b1751" fill-opacity="1"><g transform="translate(80.06208, 103.931672)"><g><path d="M 4.609375 -5.015625 L 1.015625 -0.71875 L 0.8125 -0.46875 L 0.5625 -0.671875 L -6.640625 -6.6875 L -6.90625 -6.90625 L -6.703125 -7.15625 L -5.875 -8.140625 L -5.671875 -8.390625 L -5.40625 -8.171875 L 0.671875 -3.09375 L 3.234375 -6.15625 L 3.4375 -6.40625 L 3.6875 -6.203125 L 4.5625 -5.46875 L 4.8125 -5.265625 Z M 4.609375 -5.015625 "/></g></g></g><g fill="#1b1751" fill-opacity="1"><g transform="translate(87.798504, 94.944423)"><g><path d="M -0.421875 -0.21875 L -4.203125 -9.21875 L -4.3125 -9.4375 L -4.140625 -9.59375 L -2.984375 -10.75 L -2.78125 -10.640625 L 6.1875 -6.78125 L 6.5 -6.625 L 6.359375 -6.328125 L 5.84375 -5.171875 L 5.71875 -4.859375 L 5.40625 -5.015625 L 2.984375 -6.09375 L 0.21875 -3.34375 L 1.265625 -0.921875 L 1.40625 -0.609375 L 1.078125 -0.484375 L 0 -0.03125 L -0.296875 0.109375 Z M -0.515625 -5.0625 L 1.28125 -6.84375 L -1.921875 -8.25 Z M -0.515625 -5.0625 "/></g></g></g><g fill="#1b1751" fill-opacity="1"><g transform="translate(97.859904, 85.316322)"><g><path d="M -1.890625 -6.71875 L 2.140625 -1.71875 L 2.34375 -1.46875 L 2.09375 -1.265625 L 1.140625 -0.5 L 0.890625 -0.296875 L 0.6875 -0.546875 L -5.203125 -7.859375 L -5.421875 -8.125 L -5.171875 -8.328125 L -3.84375 -9.40625 L -3.703125 -9.515625 L -3.515625 -9.453125 L 3.390625 -6.484375 L -0.671875 -11.515625 L -0.890625 -11.78125 L -0.625 -12 L 0.3125 -12.75 L 0.59375 -12.96875 L 0.8125 -12.703125 L 6.703125 -5.390625 L 6.90625 -5.140625 L 6.625 -4.921875 L 5.9375 -4.359375 L 5.34375 -3.890625 L 5.1875 -3.75 L 5 -3.828125 Z M -1.890625 -6.71875 "/></g></g></g><g fill="#1b1751" fill-opacity="1"><g transform="translate(109.262117, 76.48535)"><g><path d="M 1.34375 -7.1875 L 3.984375 -8.90625 L 4.28125 -9.09375 L 4.453125 -8.8125 L 7.15625 -4.625 L 7.328125 -4.34375 L 7.03125 -4.15625 L 6.09375 -3.546875 L 5.796875 -3.359375 L 5.625 -3.640625 L 5.484375 -3.84375 C 5.390625 -3.625 5.273438 -3.398438 5.140625 -3.171875 C 4.867188 -2.691406 4.484375 -2.296875 3.984375 -1.984375 C 3.472656 -1.648438 2.945312 -1.445312 2.40625 -1.375 C 2.21875 -1.34375 2.03125 -1.332031 1.84375 -1.34375 C 1.664062 -1.351562 1.484375 -1.375 1.296875 -1.40625 C 1.117188 -1.4375 0.941406 -1.476562 0.765625 -1.53125 C 0.222656 -1.707031 -0.296875 -1.992188 -0.796875 -2.390625 C -1.035156 -2.585938 -1.269531 -2.8125 -1.5 -3.0625 C -1.726562 -3.320312 -1.941406 -3.601562 -2.140625 -3.90625 C -2.566406 -4.570312 -2.875 -5.234375 -3.0625 -5.890625 C -3.238281 -6.566406 -3.289062 -7.21875 -3.21875 -7.84375 C -3.207031 -8.050781 -3.175781 -8.253906 -3.125 -8.453125 C -3.070312 -8.660156 -3.003906 -8.859375 -2.921875 -9.046875 C -2.835938 -9.234375 -2.738281 -9.414062 -2.625 -9.59375 C -2.289062 -10.132812 -1.8125 -10.609375 -1.1875 -11.015625 C -0.65625 -11.347656 -0.148438 -11.578125 0.328125 -11.703125 C 0.367188 -11.722656 0.421875 -11.738281 0.484375 -11.75 C 0.546875 -11.769531 0.597656 -11.785156 0.640625 -11.796875 C 0.691406 -11.804688 0.742188 -11.816406 0.796875 -11.828125 C 0.859375 -11.835938 0.914062 -11.847656 0.96875 -11.859375 C 1.019531 -11.867188 1.070312 -11.875 1.125 -11.875 C 1.175781 -11.882812 1.226562 -11.894531 1.28125 -11.90625 C 1.332031 -11.914062 1.382812 -11.921875 1.4375 -11.921875 C 1.5 -11.921875 1.554688 -11.925781 1.609375 -11.9375 C 1.660156 -11.957031 1.707031 -11.96875 1.75 -11.96875 L 2.078125 -11.96875 L 2.125 -11.671875 L 2.3125 -10.53125 L 2.359375 -10.171875 L 2 -10.15625 C 1.851562 -10.132812 1.710938 -10.113281 1.578125 -10.09375 C 1.453125 -10.082031 1.320312 -10.0625 1.1875 -10.03125 C 1.0625 -10.007812 0.941406 -9.988281 0.828125 -9.96875 C 0.640625 -9.914062 0.453125 -9.847656 0.265625 -9.765625 C 0.078125 -9.691406 -0.101562 -9.59375 -0.28125 -9.46875 C -0.445312 -9.363281 -0.585938 -9.25 -0.703125 -9.125 C -0.828125 -9.007812 -0.929688 -8.875 -1.015625 -8.71875 C -1.203125 -8.425781 -1.3125 -8.101562 -1.34375 -7.75 C -1.382812 -7.363281 -1.335938 -6.941406 -1.203125 -6.484375 C -1.066406 -6.023438 -0.835938 -5.550781 -0.515625 -5.0625 C -0.234375 -4.625 0.0664062 -4.265625 0.390625 -3.984375 C 0.722656 -3.703125 1.050781 -3.503906 1.375 -3.390625 C 1.695312 -3.285156 2.019531 -3.253906 2.34375 -3.296875 C 2.5 -3.304688 2.65625 -3.335938 2.8125 -3.390625 C 2.96875 -3.453125 3.125 -3.535156 3.28125 -3.640625 C 3.363281 -3.691406 3.441406 -3.75 3.515625 -3.8125 C 3.597656 -3.882812 3.671875 -3.96875 3.734375 -4.0625 C 3.804688 -4.125 3.875 -4.191406 3.9375 -4.265625 C 4 -4.347656 4.050781 -4.4375 4.09375 -4.53125 C 4.125 -4.570312 4.15625 -4.617188 4.1875 -4.671875 C 4.21875 -4.734375 4.25 -4.789062 4.28125 -4.84375 C 4.3125 -4.90625 4.328125 -4.960938 4.328125 -5.015625 C 4.347656 -5.035156 4.363281 -5.066406 4.375 -5.109375 C 4.394531 -5.148438 4.410156 -5.191406 4.421875 -5.234375 C 4.429688 -5.285156 4.4375 -5.316406 4.4375 -5.328125 L 3.59375 -6.65625 L 2.25 -5.78125 L 1.96875 -5.609375 L 1.78125 -5.875 L 1.234375 -6.734375 L 1.0625 -7.015625 Z M 1.34375 -7.1875 "/></g></g></g><g fill="#1b1751" fill-opacity="1"><g transform="translate(121.168769, 69.098895)"><g><path d="M 1.59375 -11.734375 L 2.6875 -12.296875 L 3 -12.453125 L 3.15625 -12.140625 L 5.78125 -7.015625 C 6.0625 -6.453125 6.234375 -5.90625 6.296875 -5.375 C 6.367188 -4.832031 6.335938 -4.328125 6.203125 -3.859375 C 6.171875 -3.753906 6.132812 -3.65625 6.09375 -3.5625 C 6.0625 -3.476562 6.019531 -3.390625 5.96875 -3.296875 C 5.925781 -3.203125 5.878906 -3.113281 5.828125 -3.03125 C 5.785156 -2.945312 5.734375 -2.863281 5.671875 -2.78125 C 5.617188 -2.707031 5.554688 -2.632812 5.484375 -2.5625 C 5.160156 -2.164062 4.742188 -1.835938 4.234375 -1.578125 C 3.171875 -1.046875 2.171875 -0.941406 1.234375 -1.265625 C 0.316406 -1.597656 -0.4375 -2.335938 -1.03125 -3.484375 L -3.671875 -8.671875 L -3.828125 -8.984375 L -3.53125 -9.125 L -2.390625 -9.703125 L -2.078125 -9.859375 L -1.921875 -9.546875 L 0.640625 -4.546875 C 1.015625 -3.796875 1.4375 -3.304688 1.90625 -3.078125 C 2.125 -2.960938 2.351562 -2.910156 2.59375 -2.921875 C 2.84375 -2.941406 3.117188 -3.023438 3.421875 -3.171875 C 4.003906 -3.472656 4.34375 -3.867188 4.4375 -4.359375 C 4.53125 -4.890625 4.390625 -5.53125 4.015625 -6.28125 L 1.453125 -11.28125 L 1.296875 -11.59375 Z M 1.59375 -11.734375 "/></g></g></g><g fill="#1b1751" fill-opacity="1"><g transform="translate(133.719031, 62.985395)"><g><path d="M -0.296875 -0.359375 L -0.15625 -10.140625 L -0.171875 -10.375 L 0.046875 -10.453125 L 1.34375 -10.96875 L 1.5625 -11.046875 L 1.71875 -10.875 L 8.375 -3.734375 L 8.609375 -3.46875 L 8.34375 -3.265625 L 7.421875 -2.40625 L 7.1875 -2.15625 L 6.96875 -2.421875 L 5.171875 -4.375 L 1.546875 -2.96875 L 1.515625 -0.34375 L 1.53125 0 L 1.1875 -0.015625 L 0.015625 -0.046875 L -0.328125 -0.015625 Z M 1.546875 -4.84375 L 3.90625 -5.75 L 1.5625 -8.328125 Z M 1.546875 -4.84375 "/></g></g></g><g fill="#1b1751" fill-opacity="1"><g transform="translate(146.800171, 58.190763)"><g><path d="M 3.4375 -6.453125 L 6.46875 -7.28125 L 6.8125 -7.375 L 6.90625 -7.0625 L 8.21875 -2.25 L 8.3125 -1.9375 L 7.96875 -1.84375 L 6.890625 -1.546875 L 6.5625 -1.453125 L 6.46875 -1.765625 L 6.40625 -2 C 6.238281 -1.820312 6.054688 -1.644531 5.859375 -1.46875 C 5.453125 -1.101562 4.960938 -0.84375 4.390625 -0.6875 C 3.804688 -0.519531 3.242188 -0.488281 2.703125 -0.59375 C 2.523438 -0.625 2.347656 -0.664062 2.171875 -0.71875 C 1.992188 -0.78125 1.820312 -0.851562 1.65625 -0.9375 C 1.5 -1.03125 1.34375 -1.128906 1.1875 -1.234375 C 0.726562 -1.566406 0.320312 -1.992188 -0.03125 -2.515625 C -0.207031 -2.773438 -0.363281 -3.0625 -0.5 -3.375 C -0.644531 -3.695312 -0.765625 -4.035156 -0.859375 -4.390625 C -1.066406 -5.148438 -1.15625 -5.867188 -1.125 -6.546875 C -1.101562 -7.242188 -0.96875 -7.875 -0.71875 -8.4375 C -0.632812 -8.632812 -0.535156 -8.820312 -0.421875 -9 C -0.304688 -9.175781 -0.179688 -9.34375 -0.046875 -9.5 C 0.0859375 -9.664062 0.234375 -9.8125 0.390625 -9.9375 C 0.867188 -10.351562 1.46875 -10.660156 2.1875 -10.859375 C 2.789062 -11.023438 3.34375 -11.09375 3.84375 -11.0625 C 3.894531 -11.0625 3.945312 -11.054688 4 -11.046875 C 4.0625 -11.046875 4.117188 -11.046875 4.171875 -11.046875 C 4.222656 -11.046875 4.273438 -11.039062 4.328125 -11.03125 C 4.390625 -11.019531 4.445312 -11.015625 4.5 -11.015625 C 4.550781 -11.015625 4.601562 -11.007812 4.65625 -11 C 4.707031 -10.988281 4.757812 -10.976562 4.8125 -10.96875 C 4.863281 -10.96875 4.914062 -10.957031 4.96875 -10.9375 C 5.019531 -10.914062 5.070312 -10.898438 5.125 -10.890625 C 5.1875 -10.890625 5.238281 -10.882812 5.28125 -10.875 L 5.578125 -10.796875 L 5.5625 -10.484375 L 5.390625 -9.34375 L 5.3125 -8.984375 L 4.96875 -9.0625 C 4.832031 -9.09375 4.695312 -9.117188 4.5625 -9.140625 C 4.4375 -9.160156 4.304688 -9.179688 4.171875 -9.203125 C 4.035156 -9.222656 3.90625 -9.238281 3.78125 -9.25 C 3.601562 -9.269531 3.410156 -9.265625 3.203125 -9.234375 C 3.003906 -9.210938 2.800781 -9.175781 2.59375 -9.125 C 2.40625 -9.070312 2.234375 -9.003906 2.078125 -8.921875 C 1.929688 -8.835938 1.789062 -8.734375 1.65625 -8.609375 C 1.394531 -8.398438 1.195312 -8.128906 1.0625 -7.796875 C 0.90625 -7.441406 0.820312 -7.03125 0.8125 -6.5625 C 0.800781 -6.082031 0.875 -5.554688 1.03125 -4.984375 C 1.175781 -4.472656 1.359375 -4.035156 1.578125 -3.671875 C 1.804688 -3.304688 2.054688 -3.023438 2.328125 -2.828125 C 2.597656 -2.617188 2.894531 -2.488281 3.21875 -2.4375 C 3.363281 -2.40625 3.519531 -2.390625 3.6875 -2.390625 C 3.851562 -2.398438 4.023438 -2.429688 4.203125 -2.484375 C 4.304688 -2.503906 4.40625 -2.535156 4.5 -2.578125 C 4.601562 -2.628906 4.703125 -2.679688 4.796875 -2.734375 C 4.878906 -2.785156 4.960938 -2.835938 5.046875 -2.890625 C 5.128906 -2.941406 5.203125 -3.003906 5.265625 -3.078125 C 5.304688 -3.109375 5.347656 -3.144531 5.390625 -3.1875 C 5.441406 -3.238281 5.488281 -3.285156 5.53125 -3.328125 C 5.582031 -3.367188 5.625 -3.414062 5.65625 -3.46875 C 5.664062 -3.488281 5.6875 -3.515625 5.71875 -3.546875 C 5.75 -3.585938 5.773438 -3.625 5.796875 -3.65625 C 5.816406 -3.695312 5.832031 -3.722656 5.84375 -3.734375 L 5.421875 -5.265625 L 3.875 -4.84375 L 3.546875 -4.75 L 3.46875 -5.0625 L 3.203125 -6.046875 L 3.109375 -6.359375 Z M 3.4375 -6.453125 "/></g></g></g><g fill="#1b1751" fill-opacity="1"><g transform="translate(160.405158, 54.755837)"><g><path d="M -0.46875 -9.796875 L 5.09375 -10.75 L 5.421875 -10.8125 L 5.484375 -10.46875 L 5.671875 -9.390625 L 5.734375 -9.0625 L 5.40625 -9 L 1.421875 -8.328125 L 1.78125 -6.171875 L 5.15625 -6.75 L 5.5 -6.796875 L 5.5625 -6.46875 L 5.75 -5.40625 L 5.796875 -5.078125 L 5.453125 -5.03125 L 2.078125 -4.453125 L 2.515625 -1.90625 L 6.5 -2.578125 L 6.828125 -2.640625 L 6.890625 -2.296875 L 7.078125 -1.21875 L 7.140625 -0.890625 L 6.8125 -0.828125 L 1.25 0.125 L 0.921875 0.171875 L 0.859375 -0.15625 L -0.734375 -9.40625 L -0.796875 -9.75 Z M -0.46875 -9.796875 "/></g></g></g><g fill="#1b1751" fill-opacity="1"><g transform="translate(172.770135, 52.897417)"><g/></g></g><g fill="#c5a16f" fill-opacity="1"><g transform="translate(181.77606, 52.136135)"><g><path d="M 8.375 -6.1875 L 6.515625 -1.984375 L 6.421875 -1.78125 L 4.71875 -1.78125 L 4.625 -1.984375 L 2.75 -6.203125 L 2.75 0.328125 L 0.875 0.328125 L 0.875 -9.734375 L 3.203125 -9.734375 L 3.296875 -9.53125 L 5.59375 -4.296875 L 7.859375 -9.53125 L 7.953125 -9.734375 L 10.328125 -9.734375 L 10.328125 0.328125 L 8.375 0.328125 Z M 8.375 -6.1875 "/></g></g></g><g fill="#c5a16f" fill-opacity="1"><g transform="translate(197.900643, 52.478291)"><g><path d="M -0.109375 -0.46875 L 4.546875 -9.0625 L 4.65625 -9.28125 L 4.890625 -9.25 L 6.265625 -9.09375 L 6.5 -9.078125 L 6.546875 -8.84375 L 9.140625 0.5625 L 9.234375 0.875 L 8.921875 0.953125 L 7.703125 1.296875 L 7.375 1.40625 L 7.296875 1.0625 L 6.625 -1.5 L 2.75 -1.921875 L 1.5 0.40625 L 1.34375 0.703125 L 1.0625 0.546875 L 0.03125 -0.03125 L -0.28125 -0.171875 Z M 3.609375 -3.578125 L 6.125 -3.296875 L 5.21875 -6.671875 Z M 3.609375 -3.578125 "/></g></g></g><g fill="#c5a16f" fill-opacity="1"><g transform="translate(211.736639, 54.291643)"><g><path d="M 2.140625 -9.5 L 9.03125 -8.0625 L 9.359375 -7.984375 L 9.28125 -7.640625 L 9.046875 -6.546875 L 8.984375 -6.21875 L 8.65625 -6.296875 L 6.15625 -6.8125 L 4.53125 0.953125 L 4.46875 1.28125 L 4.140625 1.203125 L 2.890625 0.953125 L 2.5625 0.875 L 2.625 0.546875 L 4.25 -7.21875 L 1.765625 -7.734375 L 1.421875 -7.8125 L 1.484375 -8.140625 L 1.71875 -9.234375 L 1.796875 -9.578125 Z M 2.140625 -9.5 "/></g></g></g><g fill="#c5a16f" fill-opacity="1"><g transform="translate(223.734107, 56.996979)"><g><path d="M 7.65625 -1.734375 L 3.875 -2.921875 L 2.6875 0.84375 L 2.59375 1.15625 L 2.28125 1.0625 L 1.046875 0.671875 L 0.734375 0.578125 L 0.828125 0.265625 L 3.640625 -8.6875 L 3.75 -9.015625 L 4.0625 -8.921875 L 5.296875 -8.53125 L 5.609375 -8.4375 L 5.5 -8.109375 L 4.40625 -4.609375 L 8.1875 -3.421875 L 9.28125 -6.921875 L 9.390625 -7.25 L 9.703125 -7.15625 L 10.921875 -6.765625 L 11.234375 -6.671875 L 11.125 -6.34375 L 8.3125 2.609375 L 8.21875 2.921875 L 7.90625 2.828125 L 6.6875 2.4375 L 6.375 2.34375 L 6.46875 2.03125 Z M 7.65625 -1.734375 "/></g></g></g><g fill="#c5a16f" fill-opacity="1"><g transform="translate(237.52131, 61.574745)"><g><path d="M 10.15625 -2.265625 L 6.75 0.828125 L 6.59375 0.96875 L 6.390625 0.890625 L 5.234375 0.375 L 5.03125 0.28125 L 5.03125 -4.5625 L 2.515625 1.109375 L 2.390625 1.40625 L 2.09375 1.28125 L 0.96875 0.78125 L 0.671875 0.65625 L 0.796875 0.359375 L 4.59375 -8.234375 L 4.734375 -8.546875 L 5.03125 -8.421875 L 5.890625 -8.046875 L 6.6875 -7.6875 L 6.859375 -7.609375 L 6.875 -7.390625 L 6.84375 -1.65625 L 11.046875 -5.53125 L 11.203125 -5.6875 L 11.390625 -5.609375 L 12.15625 -5.265625 L 13.0625 -4.859375 L 13.375 -4.734375 L 13.234375 -4.421875 L 9.4375 4.171875 L 9.3125 4.46875 L 9 4.34375 L 7.828125 3.8125 L 7.53125 3.6875 L 7.65625 3.390625 Z M 10.15625 -2.265625 "/></g></g></g><g fill="#c5a16f" fill-opacity="1"><g transform="translate(252.132537, 68.403344)"><g><path d="M 0.09375 -0.46875 L 7.828125 -6.46875 L 8 -6.609375 L 8.203125 -6.5 L 9.40625 -5.796875 L 9.609375 -5.6875 L 9.5625 -5.453125 L 8.15625 4.203125 L 8.109375 4.53125 L 7.765625 4.46875 L 6.515625 4.296875 L 6.171875 4.265625 L 6.25 3.921875 L 6.640625 1.296875 L 3.28125 -0.65625 L 1.21875 0.984375 L 0.953125 1.1875 L 0.734375 0.921875 L 0.046875 -0.015625 L -0.171875 -0.28125 Z M 4.734375 -1.828125 L 6.921875 -0.546875 L 7.46875 -4 Z M 4.734375 -1.828125 "/></g></g></g><g fill="#c5a16f" fill-opacity="1"><g transform="translate(264.05628, 75.651062)"><g><path d="M 5.78125 -7.828125 L 11.515625 -3.71875 L 11.78125 -3.53125 L 11.578125 -3.25 L 10.921875 -2.34375 L 10.734375 -2.078125 L 10.46875 -2.265625 L 8.390625 -3.75 L 3.765625 2.703125 L 3.578125 2.96875 L 3.296875 2.765625 L 2.265625 2.03125 L 2 1.828125 L 2.1875 1.5625 L 6.8125 -4.890625 L 4.734375 -6.375 L 4.453125 -6.578125 L 4.640625 -6.84375 L 5.296875 -7.75 L 5.5 -8.03125 Z M 5.78125 -7.828125 "/></g></g></g><g fill="#c5a16f" fill-opacity="1"><g transform="translate(273.953971, 83.082742)"><g><path d="M 0.671875 0.5625 L 6.71875 -6.625 L 6.9375 -6.890625 L 7.1875 -6.671875 L 8.171875 -5.859375 L 8.421875 -5.640625 L 8.203125 -5.375 L 2.15625 1.8125 L 1.9375 2.0625 L 1.6875 1.84375 L 0.703125 1.03125 L 0.453125 0.8125 Z M 0.671875 0.5625 "/></g></g></g><g fill="#c5a16f" fill-opacity="1"><g transform="translate(280.573067, 88.801091)"><g><path d="M 4.953125 -1.734375 C 4.828125 -1.597656 4.710938 -1.46875 4.609375 -1.34375 C 4.503906 -1.226562 4.40625 -1.101562 4.3125 -0.96875 C 4.226562 -0.832031 4.160156 -0.695312 4.109375 -0.5625 C 3.898438 -0.164062 3.773438 0.21875 3.734375 0.59375 C 3.710938 0.71875 3.703125 0.835938 3.703125 0.953125 C 3.710938 1.078125 3.726562 1.195312 3.75 1.3125 C 3.78125 1.4375 3.8125 1.554688 3.84375 1.671875 C 3.96875 2.003906 4.164062 2.304688 4.4375 2.578125 C 4.71875 2.859375 4.992188 3.066406 5.265625 3.203125 C 5.554688 3.335938 5.859375 3.445312 6.171875 3.53125 L 6.5625 3.640625 L 6.390625 4 L 5.9375 5.03125 L 5.8125 5.296875 L 5.53125 5.21875 C 5.144531 5.101562 4.742188 4.929688 4.328125 4.703125 C 3.921875 4.472656 3.503906 4.148438 3.078125 3.734375 C 2.609375 3.273438 2.265625 2.765625 2.046875 2.203125 C 1.828125 1.640625 1.734375 1.0625 1.765625 0.46875 C 1.796875 -0.132812 1.957031 -0.734375 2.25 -1.328125 C 2.539062 -1.941406 2.957031 -2.523438 3.5 -3.078125 C 4.03125 -3.609375 4.597656 -4.023438 5.203125 -4.328125 C 5.804688 -4.640625 6.414062 -4.820312 7.03125 -4.875 C 7.65625 -4.914062 8.257812 -4.828125 8.84375 -4.609375 C 9.144531 -4.492188 9.429688 -4.347656 9.703125 -4.171875 C 9.984375 -3.992188 10.25 -3.78125 10.5 -3.53125 C 10.84375 -3.195312 11.113281 -2.863281 11.3125 -2.53125 C 11.53125 -2.195312 11.707031 -1.847656 11.84375 -1.484375 L 11.953125 -1.203125 L 11.671875 -1.0625 L 10.640625 -0.5625 L 10.296875 -0.421875 L 10.171875 -0.765625 C 10.078125 -1.035156 9.960938 -1.289062 9.828125 -1.53125 C 9.785156 -1.625 9.734375 -1.707031 9.671875 -1.78125 C 9.609375 -1.851562 9.539062 -1.929688 9.46875 -2.015625 C 9.40625 -2.097656 9.328125 -2.1875 9.234375 -2.28125 C 9.097656 -2.40625 8.953125 -2.519531 8.796875 -2.625 C 8.648438 -2.726562 8.492188 -2.804688 8.328125 -2.859375 C 8.160156 -2.921875 7.988281 -2.960938 7.8125 -2.984375 C 7.644531 -3.015625 7.46875 -3.015625 7.28125 -2.984375 C 7.09375 -2.960938 6.90625 -2.925781 6.71875 -2.875 C 6.539062 -2.820312 6.347656 -2.742188 6.140625 -2.640625 C 5.734375 -2.429688 5.335938 -2.128906 4.953125 -1.734375 Z M 4.953125 -1.734375 "/></g></g></g><g fill="#c5a16f" fill-opacity="1"><g transform="translate(289.63032, 98.08789)"><g><path d="M 2.453125 -0.375 C 2.453125 -0.1875 2.460938 0 2.484375 0.1875 C 2.515625 0.382812 2.5625 0.582031 2.625 0.78125 C 2.738281 1.15625 2.957031 1.53125 3.28125 1.90625 C 3.46875 2.125 3.65625 2.296875 3.84375 2.421875 C 4.03125 2.554688 4.210938 2.648438 4.390625 2.703125 C 4.734375 2.773438 5.035156 2.707031 5.296875 2.5 C 5.316406 2.476562 5.335938 2.457031 5.359375 2.4375 C 5.378906 2.414062 5.394531 2.394531 5.40625 2.375 C 5.425781 2.363281 5.445312 2.347656 5.46875 2.328125 C 5.5 2.304688 5.519531 2.28125 5.53125 2.25 C 5.539062 2.226562 5.550781 2.203125 5.5625 2.171875 C 5.625 2.085938 5.65625 1.960938 5.65625 1.796875 C 5.675781 1.617188 5.65625 1.390625 5.59375 1.109375 C 5.519531 0.804688 5.410156 0.4375 5.265625 0 C 5.097656 -0.507812 4.972656 -0.957031 4.890625 -1.34375 C 4.816406 -1.75 4.796875 -2.117188 4.828125 -2.453125 C 4.847656 -2.566406 4.867188 -2.675781 4.890625 -2.78125 C 4.921875 -2.882812 4.957031 -2.988281 5 -3.09375 C 5.039062 -3.207031 5.085938 -3.3125 5.140625 -3.40625 C 5.304688 -3.675781 5.53125 -3.929688 5.8125 -4.171875 C 6.101562 -4.421875 6.429688 -4.585938 6.796875 -4.671875 C 7.160156 -4.765625 7.546875 -4.773438 7.953125 -4.703125 C 8.328125 -4.609375 8.710938 -4.441406 9.109375 -4.203125 C 9.484375 -3.972656 9.847656 -3.648438 10.203125 -3.234375 C 10.578125 -2.785156 10.875 -2.347656 11.09375 -1.921875 C 11.289062 -1.492188 11.453125 -1.035156 11.578125 -0.546875 L 11.640625 -0.234375 L 11.359375 -0.140625 L 10.203125 0.203125 L 9.84375 0.3125 L 9.765625 -0.0625 C 9.765625 -0.175781 9.742188 -0.285156 9.703125 -0.390625 C 9.671875 -0.503906 9.632812 -0.617188 9.59375 -0.734375 C 9.5625 -0.847656 9.515625 -0.96875 9.453125 -1.09375 C 9.296875 -1.457031 9.085938 -1.796875 8.828125 -2.109375 C 8.648438 -2.316406 8.476562 -2.484375 8.3125 -2.609375 C 8.144531 -2.734375 7.988281 -2.820312 7.84375 -2.875 C 7.738281 -2.894531 7.644531 -2.90625 7.5625 -2.90625 C 7.476562 -2.90625 7.398438 -2.890625 7.328125 -2.859375 C 7.253906 -2.828125 7.179688 -2.78125 7.109375 -2.71875 C 7.003906 -2.632812 6.925781 -2.550781 6.875 -2.46875 C 6.820312 -2.382812 6.796875 -2.273438 6.796875 -2.140625 C 6.796875 -2.046875 6.800781 -1.945312 6.8125 -1.84375 C 6.832031 -1.738281 6.863281 -1.613281 6.90625 -1.46875 C 6.90625 -1.414062 6.914062 -1.347656 6.9375 -1.265625 C 6.957031 -1.191406 6.984375 -1.109375 7.015625 -1.015625 C 7.046875 -0.929688 7.078125 -0.835938 7.109375 -0.734375 C 7.140625 -0.628906 7.171875 -0.523438 7.203125 -0.421875 C 7.398438 0.117188 7.535156 0.597656 7.609375 1.015625 C 7.628906 1.097656 7.644531 1.179688 7.65625 1.265625 C 7.664062 1.347656 7.671875 1.425781 7.671875 1.5 C 7.679688 1.582031 7.6875 1.664062 7.6875 1.75 C 7.6875 1.832031 7.679688 1.910156 7.671875 1.984375 C 7.671875 2.054688 7.664062 2.128906 7.65625 2.203125 C 7.601562 2.566406 7.492188 2.890625 7.328125 3.171875 C 7.160156 3.441406 6.941406 3.691406 6.671875 3.921875 C 6.296875 4.242188 5.90625 4.453125 5.5 4.546875 C 5.0625 4.640625 4.640625 4.648438 4.234375 4.578125 C 3.804688 4.484375 3.390625 4.304688 2.984375 4.046875 C 2.597656 3.785156 2.238281 3.457031 1.90625 3.0625 C 1.457031 2.53125 1.125 1.984375 0.90625 1.421875 C 0.675781 0.859375 0.554688 0.328125 0.546875 -0.171875 L 0.53125 -0.5 L 0.828125 -0.515625 L 2.0625 -0.71875 L 2.4375 -0.78125 Z M 2.453125 -0.375 "/></g></g></g><g fill="#8e2f26" fill-opacity="1"><g transform="translate(62.440331, 261.04862)"><g><path d="M 2.484375 -0.015625 C 2.453125 0.171875 2.4375 0.359375 2.4375 0.546875 C 2.4375 0.742188 2.453125 0.941406 2.484375 1.140625 C 2.546875 1.535156 2.703125 1.941406 2.953125 2.359375 C 3.109375 2.609375 3.269531 2.8125 3.4375 2.96875 C 3.601562 3.125 3.773438 3.242188 3.953125 3.328125 C 4.273438 3.453125 4.578125 3.425781 4.859375 3.25 C 4.878906 3.238281 4.90625 3.222656 4.9375 3.203125 C 4.96875 3.191406 4.988281 3.175781 5 3.15625 C 5.019531 3.132812 5.039062 3.113281 5.0625 3.09375 C 5.09375 3.082031 5.113281 3.066406 5.125 3.046875 C 5.132812 3.023438 5.15625 3 5.1875 2.96875 C 5.25 2.894531 5.300781 2.773438 5.34375 2.609375 C 5.382812 2.429688 5.390625 2.203125 5.359375 1.921875 C 5.335938 1.609375 5.296875 1.222656 5.234375 0.765625 C 5.117188 0.242188 5.050781 -0.207031 5.03125 -0.59375 C 5.019531 -1.007812 5.054688 -1.390625 5.140625 -1.734375 C 5.171875 -1.835938 5.207031 -1.9375 5.25 -2.03125 C 5.289062 -2.132812 5.335938 -2.234375 5.390625 -2.328125 C 5.441406 -2.429688 5.507812 -2.523438 5.59375 -2.609375 C 5.789062 -2.847656 6.046875 -3.066406 6.359375 -3.265625 C 6.691406 -3.472656 7.046875 -3.597656 7.421875 -3.640625 C 7.796875 -3.679688 8.171875 -3.628906 8.546875 -3.484375 C 8.910156 -3.347656 9.269531 -3.132812 9.625 -2.84375 C 9.957031 -2.539062 10.269531 -2.160156 10.5625 -1.703125 C 10.863281 -1.203125 11.085938 -0.726562 11.234375 -0.28125 C 11.390625 0.175781 11.488281 0.65625 11.53125 1.15625 L 11.546875 1.46875 L 11.25 1.53125 L 10.0625 1.6875 L 9.6875 1.75 L 9.6875 1.375 C 9.6875 1.257812 9.675781 1.144531 9.65625 1.03125 C 9.644531 0.914062 9.625 0.800781 9.59375 0.6875 C 9.570312 0.570312 9.546875 0.441406 9.515625 0.296875 C 9.421875 -0.078125 9.265625 -0.4375 9.046875 -0.78125 C 8.898438 -1.019531 8.753906 -1.210938 8.609375 -1.359375 C 8.460938 -1.503906 8.316406 -1.613281 8.171875 -1.6875 C 8.078125 -1.726562 7.984375 -1.753906 7.890625 -1.765625 C 7.804688 -1.773438 7.726562 -1.769531 7.65625 -1.75 C 7.582031 -1.738281 7.507812 -1.707031 7.4375 -1.65625 C 7.320312 -1.582031 7.226562 -1.503906 7.15625 -1.421875 C 7.09375 -1.347656 7.054688 -1.242188 7.046875 -1.109375 C 7.023438 -1.035156 7.015625 -0.941406 7.015625 -0.828125 C 7.015625 -0.710938 7.019531 -0.585938 7.03125 -0.453125 C 7.039062 -0.378906 7.046875 -0.304688 7.046875 -0.234375 C 7.046875 -0.160156 7.050781 -0.078125 7.0625 0.015625 C 7.082031 0.109375 7.101562 0.207031 7.125 0.3125 C 7.15625 0.425781 7.175781 0.535156 7.1875 0.640625 C 7.300781 1.203125 7.367188 1.691406 7.390625 2.109375 C 7.390625 2.203125 7.390625 2.289062 7.390625 2.375 C 7.390625 2.457031 7.378906 2.535156 7.359375 2.609375 C 7.347656 2.691406 7.34375 2.773438 7.34375 2.859375 C 7.34375 2.941406 7.332031 3.015625 7.3125 3.078125 C 7.289062 3.148438 7.269531 3.222656 7.25 3.296875 C 7.15625 3.648438 7 3.953125 6.78125 4.203125 C 6.570312 4.453125 6.316406 4.671875 6.015625 4.859375 C 5.597656 5.117188 5.179688 5.269531 4.765625 5.3125 C 4.328125 5.332031 3.90625 5.273438 3.5 5.140625 C 3.101562 5.003906 2.722656 4.769531 2.359375 4.4375 C 2.023438 4.125 1.71875 3.742188 1.4375 3.296875 C 1.082031 2.710938 0.832031 2.125 0.6875 1.53125 C 0.539062 0.945312 0.5 0.40625 0.5625 -0.09375 L 0.59375 -0.40625 L 0.90625 -0.375 L 2.15625 -0.40625 L 2.546875 -0.40625 Z M 2.484375 -0.015625 "/></g></g></g><g fill="#8e2f26" fill-opacity="1"><g transform="translate(69.655097, 272.284968)"><g><path d="M 8.515625 -4.859375 L 11.890625 -0.34375 L 12.109375 -0.078125 L 11.828125 0.125 L 10.953125 0.78125 L 10.671875 0.984375 L 10.453125 0.71875 L 8.046875 -2.515625 L 6.296875 -1.203125 L 8.34375 1.53125 L 8.546875 1.8125 L 7.171875 2.84375 L 6.96875 2.5625 L 4.921875 -0.171875 L 2.84375 1.390625 L 5.25 4.625 L 5.46875 4.890625 L 5.1875 5.09375 L 4.3125 5.75 L 4.046875 5.953125 L 3.828125 5.6875 L 0.453125 1.171875 L 0.265625 0.90625 L 0.53125 0.703125 L 8.046875 -4.921875 L 8.328125 -5.125 Z M 8.515625 -4.859375 "/></g></g></g><g fill="#8e2f26" fill-opacity="1"><g transform="translate(77.755157, 282.715057)"><g><path d="M 6.59375 -2.296875 L 1.859375 2.03125 L 1.625 2.25 L 1.40625 2 L 0.578125 1.109375 L 0.359375 0.859375 L 0.59375 0.640625 L 7.515625 -5.703125 L 7.78125 -5.921875 L 8 -5.671875 L 9.15625 -4.421875 L 9.28125 -4.28125 L 9.21875 -4.09375 L 6.6875 2.984375 L 11.453125 -1.390625 L 11.71875 -1.609375 L 11.9375 -1.359375 L 12.75 -0.46875 L 12.984375 -0.21875 L 12.71875 0 L 5.796875 6.34375 L 5.5625 6.5625 L 5.328125 6.3125 L 4.734375 5.65625 L 4.21875 5.078125 L 4.078125 4.9375 L 4.140625 4.75 Z M 6.59375 -2.296875 "/></g></g></g><g fill="#8e2f26" fill-opacity="1"><g transform="translate(88.266497, 293.720665)"><g><path d="M 2.375 -0.71875 C 2.394531 -0.53125 2.429688 -0.34375 2.484375 -0.15625 C 2.546875 0.0195312 2.625 0.203125 2.71875 0.390625 C 2.882812 0.753906 3.148438 1.097656 3.515625 1.421875 C 3.734375 1.617188 3.941406 1.765625 4.140625 1.859375 C 4.347656 1.960938 4.539062 2.03125 4.71875 2.0625 C 5.070312 2.09375 5.359375 1.984375 5.578125 1.734375 C 5.597656 1.710938 5.617188 1.6875 5.640625 1.65625 C 5.660156 1.632812 5.675781 1.609375 5.6875 1.578125 C 5.707031 1.554688 5.726562 1.535156 5.75 1.515625 C 5.769531 1.492188 5.78125 1.472656 5.78125 1.453125 C 5.789062 1.429688 5.800781 1.40625 5.8125 1.375 C 5.863281 1.269531 5.878906 1.132812 5.859375 0.96875 C 5.847656 0.789062 5.785156 0.570312 5.671875 0.3125 C 5.578125 0.0195312 5.429688 -0.332031 5.234375 -0.75 C 4.984375 -1.21875 4.789062 -1.640625 4.65625 -2.015625 C 4.519531 -2.410156 4.445312 -2.78125 4.4375 -3.125 C 4.4375 -3.238281 4.441406 -3.347656 4.453125 -3.453125 C 4.460938 -3.554688 4.476562 -3.660156 4.5 -3.765625 C 4.53125 -3.878906 4.566406 -3.988281 4.609375 -4.09375 C 4.734375 -4.382812 4.921875 -4.671875 5.171875 -4.953125 C 5.429688 -5.242188 5.734375 -5.457031 6.078125 -5.59375 C 6.421875 -5.738281 6.789062 -5.800781 7.1875 -5.78125 C 7.59375 -5.75 8.003906 -5.644531 8.421875 -5.46875 C 8.835938 -5.269531 9.242188 -4.992188 9.640625 -4.640625 C 10.078125 -4.242188 10.425781 -3.847656 10.6875 -3.453125 C 10.957031 -3.066406 11.1875 -2.640625 11.375 -2.171875 L 11.5 -1.875 L 11.203125 -1.734375 L 10.140625 -1.234375 L 9.796875 -1.09375 L 9.671875 -1.453125 C 9.640625 -1.554688 9.597656 -1.65625 9.546875 -1.75 C 9.492188 -1.851562 9.441406 -1.960938 9.390625 -2.078125 C 9.335938 -2.191406 9.273438 -2.304688 9.203125 -2.421875 C 9.003906 -2.753906 8.753906 -3.054688 8.453125 -3.328125 C 8.242188 -3.515625 8.046875 -3.65625 7.859375 -3.75 C 7.679688 -3.851562 7.507812 -3.914062 7.34375 -3.9375 C 7.25 -3.945312 7.15625 -3.945312 7.0625 -3.9375 C 6.976562 -3.925781 6.90625 -3.898438 6.84375 -3.859375 C 6.78125 -3.828125 6.71875 -3.773438 6.65625 -3.703125 C 6.5625 -3.597656 6.492188 -3.5 6.453125 -3.40625 C 6.410156 -3.3125 6.398438 -3.195312 6.421875 -3.0625 C 6.441406 -2.988281 6.460938 -2.894531 6.484375 -2.78125 C 6.515625 -2.675781 6.554688 -2.5625 6.609375 -2.4375 C 6.640625 -2.375 6.664062 -2.304688 6.6875 -2.234375 C 6.71875 -2.160156 6.753906 -2.078125 6.796875 -1.984375 C 6.835938 -1.898438 6.878906 -1.8125 6.921875 -1.71875 C 6.972656 -1.625 7.023438 -1.53125 7.078125 -1.4375 C 7.335938 -0.9375 7.539062 -0.484375 7.6875 -0.078125 C 7.695312 0.015625 7.71875 0.0976562 7.75 0.171875 C 7.78125 0.253906 7.800781 0.332031 7.8125 0.40625 C 7.820312 0.488281 7.832031 0.566406 7.84375 0.640625 C 7.863281 0.722656 7.875 0.800781 7.875 0.875 C 7.882812 0.945312 7.890625 1.019531 7.890625 1.09375 C 7.898438 1.457031 7.835938 1.796875 7.703125 2.109375 C 7.585938 2.398438 7.410156 2.675781 7.171875 2.9375 C 6.835938 3.300781 6.472656 3.566406 6.078125 3.734375 C 5.671875 3.890625 5.253906 3.957031 4.828125 3.9375 C 4.390625 3.90625 3.957031 3.785156 3.53125 3.578125 C 3.113281 3.378906 2.710938 3.101562 2.328125 2.75 C 1.816406 2.289062 1.410156 1.796875 1.109375 1.265625 C 0.804688 0.753906 0.609375 0.25 0.515625 -0.25 L 0.46875 -0.546875 L 0.75 -0.625 L 1.9375 -1.015625 L 2.3125 -1.109375 Z M 2.375 -0.71875 "/></g></g></g><g fill="#8e2f26" fill-opacity="1"><g transform="translate(98.387956, 302.494451)"><g><path d="M 3.046875 -3.625 C 3.460938 -4.207031 3.945312 -4.679688 4.5 -5.046875 C 5.050781 -5.441406 5.625 -5.707031 6.21875 -5.84375 C 6.84375 -5.96875 7.460938 -5.96875 8.078125 -5.84375 C 8.398438 -5.769531 8.71875 -5.664062 9.03125 -5.53125 C 9.34375 -5.394531 9.644531 -5.21875 9.9375 -5 C 10.25 -4.78125 10.515625 -4.539062 10.734375 -4.28125 C 10.960938 -4.03125 11.15625 -3.765625 11.3125 -3.484375 C 11.476562 -3.203125 11.601562 -2.90625 11.6875 -2.59375 C 11.78125 -2.289062 11.835938 -1.988281 11.859375 -1.6875 C 11.929688 -1.070312 11.875 -0.441406 11.6875 0.203125 C 11.476562 0.835938 11.164062 1.4375 10.75 2 C 10.34375 2.570312 9.867188 3.046875 9.328125 3.421875 C 9.148438 3.554688 8.960938 3.675781 8.765625 3.78125 C 8.566406 3.882812 8.367188 3.972656 8.171875 4.046875 C 7.972656 4.117188 7.769531 4.175781 7.5625 4.21875 C 7.269531 4.289062 6.960938 4.328125 6.640625 4.328125 C 6.328125 4.335938 6.015625 4.3125 5.703125 4.25 C 5.054688 4.132812 4.425781 3.851562 3.8125 3.40625 C 3.207031 2.96875 2.753906 2.460938 2.453125 1.890625 C 2.378906 1.734375 2.3125 1.582031 2.25 1.4375 C 2.1875 1.300781 2.128906 1.160156 2.078125 1.015625 C 2.035156 0.867188 2 0.71875 1.96875 0.5625 C 1.945312 0.40625 1.921875 0.25 1.890625 0.09375 C 1.859375 -0.53125 1.9375 -1.164062 2.125 -1.8125 C 2.320312 -2.445312 2.628906 -3.050781 3.046875 -3.625 Z M 4.65625 -2.453125 C 4.519531 -2.265625 4.394531 -2.070312 4.28125 -1.875 C 4.175781 -1.675781 4.085938 -1.472656 4.015625 -1.265625 C 3.960938 -1.066406 3.914062 -0.863281 3.875 -0.65625 C 3.832031 -0.457031 3.816406 -0.257812 3.828125 -0.0625 C 3.828125 0 3.828125 0.0625 3.828125 0.125 C 3.835938 0.195312 3.847656 0.257812 3.859375 0.3125 C 3.878906 0.375 3.894531 0.4375 3.90625 0.5 C 3.914062 0.570312 3.929688 0.640625 3.953125 0.703125 C 3.972656 0.765625 3.992188 0.828125 4.015625 0.890625 C 4.046875 0.953125 4.070312 1.007812 4.09375 1.0625 C 4.257812 1.40625 4.515625 1.707031 4.859375 1.96875 C 4.992188 2.0625 5.125 2.140625 5.25 2.203125 C 5.375 2.273438 5.5 2.332031 5.625 2.375 C 5.757812 2.414062 5.890625 2.453125 6.015625 2.484375 C 6.378906 2.546875 6.75 2.523438 7.125 2.421875 C 7.238281 2.390625 7.351562 2.34375 7.46875 2.28125 C 7.582031 2.226562 7.703125 2.171875 7.828125 2.109375 C 7.953125 2.046875 8.066406 1.96875 8.171875 1.875 C 8.535156 1.601562 8.867188 1.257812 9.171875 0.84375 C 9.429688 0.488281 9.625 0.101562 9.75 -0.3125 C 9.894531 -0.71875 9.957031 -1.125 9.9375 -1.53125 C 9.9375 -1.914062 9.851562 -2.296875 9.6875 -2.671875 C 9.519531 -3.003906 9.253906 -3.300781 8.890625 -3.5625 C 8.804688 -3.625 8.71875 -3.679688 8.625 -3.734375 C 8.53125 -3.796875 8.441406 -3.84375 8.359375 -3.875 C 8.273438 -3.914062 8.179688 -3.953125 8.078125 -3.984375 C 7.984375 -4.015625 7.894531 -4.035156 7.8125 -4.046875 C 7.625 -4.085938 7.4375 -4.097656 7.25 -4.078125 C 7.0625 -4.066406 6.875 -4.039062 6.6875 -4 C 6.320312 -3.882812 5.960938 -3.703125 5.609375 -3.453125 C 5.265625 -3.179688 4.945312 -2.847656 4.65625 -2.453125 Z M 4.65625 -2.453125 "/></g></g></g><g fill="#8e2f26" fill-opacity="1"><g transform="translate(111.514612, 311.625372)"><g><path d="M 5.359375 3.453125 L 5.625 0.65625 C 5.6875 0.0390625 5.609375 -0.46875 5.390625 -0.875 C 5.316406 -0.988281 5.234375 -1.101562 5.140625 -1.21875 C 5.046875 -1.34375 4.929688 -1.457031 4.796875 -1.5625 C 4.660156 -1.664062 4.507812 -1.773438 4.34375 -1.890625 L 2.4375 1.40625 L 2.265625 1.6875 L 1.984375 1.53125 L 0.875 0.890625 L 0.578125 0.71875 L 0.75 0.4375 L 5.453125 -7.671875 L 5.609375 -7.921875 L 5.90625 -7.796875 C 6.125 -7.691406 6.332031 -7.585938 6.53125 -7.484375 C 6.738281 -7.378906 6.9375 -7.28125 7.125 -7.1875 C 7.5 -7.007812 7.910156 -6.789062 8.359375 -6.53125 C 8.878906 -6.226562 9.3125 -5.90625 9.65625 -5.5625 C 10 -5.207031 10.242188 -4.847656 10.390625 -4.484375 C 10.535156 -4.085938 10.59375 -3.691406 10.5625 -3.296875 C 10.539062 -2.910156 10.425781 -2.53125 10.21875 -2.15625 C 9.84375 -1.519531 9.34375 -1.113281 8.71875 -0.9375 C 8.320312 -0.832031 7.878906 -0.8125 7.390625 -0.875 C 7.421875 -0.789062 7.445312 -0.710938 7.46875 -0.640625 C 7.5 -0.566406 7.515625 -0.476562 7.515625 -0.375 C 7.535156 -0.28125 7.554688 -0.171875 7.578125 -0.046875 C 7.597656 0.0664062 7.609375 0.195312 7.609375 0.34375 C 7.617188 0.59375 7.609375 0.890625 7.578125 1.234375 L 7.328125 3.984375 L 7 3.953125 L 5.671875 3.828125 L 5.328125 3.796875 Z M 7.484375 -5.015625 C 7.359375 -5.085938 7.234375 -5.15625 7.109375 -5.21875 C 6.992188 -5.289062 6.882812 -5.351562 6.78125 -5.40625 C 6.738281 -5.425781 6.695312 -5.441406 6.65625 -5.453125 C 6.625 -5.472656 6.59375 -5.488281 6.5625 -5.5 C 6.53125 -5.519531 6.503906 -5.539062 6.484375 -5.5625 L 5.234375 -3.40625 L 6.21875 -2.828125 C 6.707031 -2.535156 7.164062 -2.40625 7.59375 -2.4375 C 7.96875 -2.476562 8.257812 -2.679688 8.46875 -3.046875 C 8.550781 -3.191406 8.597656 -3.34375 8.609375 -3.5 C 8.628906 -3.65625 8.601562 -3.820312 8.53125 -4 C 8.457031 -4.175781 8.332031 -4.347656 8.15625 -4.515625 C 7.988281 -4.679688 7.765625 -4.847656 7.484375 -5.015625 Z M 7.484375 -5.015625 "/></g></g></g><g fill="#8e2f26" fill-opacity="1"><g transform="translate(123.750799, 318.354805)"><g><path d="M 0.796875 0.375 L 4.84375 -8.09375 L 4.984375 -8.40625 L 5.265625 -8.265625 L 6.4375 -7.71875 L 6.71875 -7.578125 L 6.578125 -7.265625 L 2.53125 1.203125 L 2.390625 1.5 L 2.109375 1.359375 L 0.9375 0.8125 L 0.65625 0.671875 Z M 0.796875 0.375 "/></g></g></g><g fill="#8e2f26" fill-opacity="1"><g transform="translate(132.280276, 322.282471)"><g><path d="M 0.015625 -0.484375 L 6.65625 -7.65625 L 6.8125 -7.84375 L 7.03125 -7.75 L 8.328125 -7.265625 L 8.546875 -7.171875 L 8.546875 -6.953125 L 8.71875 2.828125 L 8.734375 3.15625 L 8.40625 3.140625 L 7.140625 3.171875 L 6.796875 3.203125 L 6.796875 2.84375 L 6.765625 0.1875 L 3.140625 -1.1875 L 1.375 0.765625 L 1.140625 1.015625 L 0.875 0.78125 L 0.046875 -0.015625 L -0.234375 -0.234375 Z M 4.390625 -2.578125 L 6.75 -1.671875 L 6.71875 -5.15625 Z M 4.390625 -2.578125 "/></g></g></g><g fill="#8e2f26" fill-opacity="1"><g transform="translate(146.141836, 327.187332)"><g><path d="M 6.46875 2.109375 L 1.0625 0.625 L 0.75 0.546875 L 0.84375 0.234375 L 3.328125 -8.828125 L 3.421875 -9.15625 L 3.734375 -9.078125 L 4.96875 -8.734375 L 5.296875 -8.640625 L 5.203125 -8.3125 L 3.109375 -0.671875 L 6.953125 0.375 L 7.265625 0.46875 L 7.171875 0.796875 L 6.875 1.890625 L 6.78125 2.203125 Z M 6.46875 2.109375 "/></g></g></g><g fill="#000000" fill-opacity="1"><g transform="translate(158.292566, 330.237591)"><g/></g></g><g fill="#1d321e" fill-opacity="1"><g transform="translate(167.856968, 331.929701)"><g><path d="M 2.25 -9.515625 C 2.625 -9.515625 3.03125 -9.5 3.46875 -9.46875 C 3.914062 -9.445312 4.382812 -9.410156 4.875 -9.359375 C 5.476562 -9.296875 6.015625 -9.15625 6.484375 -8.9375 C 6.566406 -8.90625 6.644531 -8.867188 6.71875 -8.828125 C 6.789062 -8.796875 6.863281 -8.753906 6.9375 -8.703125 C 7.007812 -8.660156 7.078125 -8.617188 7.140625 -8.578125 C 7.203125 -8.546875 7.257812 -8.503906 7.3125 -8.453125 C 7.375 -8.410156 7.429688 -8.363281 7.484375 -8.3125 C 7.546875 -8.257812 7.601562 -8.210938 7.65625 -8.171875 C 7.976562 -7.847656 8.210938 -7.476562 8.359375 -7.0625 C 8.492188 -6.632812 8.535156 -6.191406 8.484375 -5.734375 C 8.421875 -5.191406 8.257812 -4.710938 8 -4.296875 C 7.738281 -3.890625 7.398438 -3.554688 6.984375 -3.296875 C 6.785156 -3.179688 6.566406 -3.078125 6.328125 -2.984375 C 6.085938 -2.898438 5.832031 -2.832031 5.5625 -2.78125 C 5.03125 -2.707031 4.460938 -2.703125 3.859375 -2.765625 C 3.773438 -2.773438 3.691406 -2.785156 3.609375 -2.796875 C 3.523438 -2.804688 3.445312 -2.816406 3.375 -2.828125 C 3.300781 -2.835938 3.226562 -2.847656 3.15625 -2.859375 L 2.796875 0.3125 L 2.765625 0.640625 L 2.4375 0.609375 L 1.171875 0.46875 L 0.84375 0.421875 L 0.875 0.09375 L 1.90625 -9.21875 L 1.9375 -9.5 Z M 4.21875 -4.46875 C 4.9375 -4.382812 5.5 -4.472656 5.90625 -4.734375 C 6.28125 -4.984375 6.492188 -5.351562 6.546875 -5.84375 C 6.597656 -6.320312 6.476562 -6.710938 6.1875 -7.015625 C 5.851562 -7.347656 5.335938 -7.550781 4.640625 -7.625 C 4.566406 -7.632812 4.488281 -7.644531 4.40625 -7.65625 C 4.332031 -7.664062 4.257812 -7.671875 4.1875 -7.671875 C 4.113281 -7.671875 4.039062 -7.675781 3.96875 -7.6875 C 3.882812 -7.695312 3.789062 -7.703125 3.6875 -7.703125 L 3.34375 -4.59375 L 3.546875 -4.546875 C 3.609375 -4.535156 3.675781 -4.523438 3.75 -4.515625 C 3.820312 -4.503906 3.894531 -4.492188 3.96875 -4.484375 C 4.050781 -4.484375 4.132812 -4.476562 4.21875 -4.46875 Z M 4.21875 -4.46875 "/></g></g></g><g fill="#1d321e" fill-opacity="1"><g transform="translate(181.342765, 333.164323)"><g><path d="M 6.375 0.390625 L 5.234375 -2.171875 C 4.984375 -2.742188 4.664062 -3.15625 4.28125 -3.40625 C 4.15625 -3.46875 4.023438 -3.523438 3.890625 -3.578125 C 3.753906 -3.628906 3.597656 -3.671875 3.421875 -3.703125 C 3.253906 -3.734375 3.070312 -3.753906 2.875 -3.765625 L 2.8125 0.046875 L 2.8125 0.375 L 2.484375 0.359375 L 1.203125 0.34375 L 0.875 0.34375 L 0.875 0.015625 L 1.015625 -9.359375 L 1.03125 -9.65625 L 1.34375 -9.6875 C 1.582031 -9.695312 1.816406 -9.707031 2.046875 -9.71875 C 2.273438 -9.738281 2.492188 -9.75 2.703125 -9.75 C 3.128906 -9.78125 3.597656 -9.789062 4.109375 -9.78125 C 4.710938 -9.769531 5.242188 -9.703125 5.703125 -9.578125 C 6.171875 -9.429688 6.5625 -9.226562 6.875 -8.96875 C 7.207031 -8.707031 7.457031 -8.398438 7.625 -8.046875 C 7.789062 -7.691406 7.867188 -7.300781 7.859375 -6.875 C 7.847656 -6.132812 7.609375 -5.535156 7.140625 -5.078125 C 6.847656 -4.785156 6.472656 -4.546875 6.015625 -4.359375 C 6.078125 -4.304688 6.140625 -4.253906 6.203125 -4.203125 C 6.265625 -4.148438 6.320312 -4.085938 6.375 -4.015625 C 6.445312 -3.929688 6.519531 -3.835938 6.59375 -3.734375 C 6.664062 -3.640625 6.734375 -3.535156 6.796875 -3.421875 C 6.929688 -3.203125 7.070312 -2.9375 7.21875 -2.625 L 8.203125 -0.421875 L 8.328125 -0.109375 L 8.03125 0.03125 L 6.828125 0.578125 L 6.5 0.703125 Z M 4.078125 -8.03125 C 3.929688 -8.03125 3.789062 -8.03125 3.65625 -8.03125 C 3.519531 -8.039062 3.394531 -8.039062 3.28125 -8.03125 C 3.238281 -8.03125 3.195312 -8.023438 3.15625 -8.015625 C 3.113281 -8.015625 3.070312 -8.015625 3.03125 -8.015625 C 3 -8.015625 2.96875 -8.015625 2.9375 -8.015625 L 2.890625 -5.515625 L 4.03125 -5.5 C 4.601562 -5.488281 5.070312 -5.601562 5.4375 -5.84375 C 5.738281 -6.050781 5.894531 -6.367188 5.90625 -6.796875 C 5.90625 -6.960938 5.867188 -7.117188 5.796875 -7.265625 C 5.734375 -7.410156 5.628906 -7.539062 5.484375 -7.65625 C 5.335938 -7.769531 5.144531 -7.859375 4.90625 -7.921875 C 4.675781 -7.992188 4.398438 -8.03125 4.078125 -8.03125 Z M 4.078125 -8.03125 "/></g></g></g><g fill="#1d321e" fill-opacity="1"><g transform="translate(195.384813, 333.110539)"><g><path d="M -0.1875 -0.4375 L 2.703125 -9.78125 L 2.765625 -10 L 3 -10.03125 L 4.390625 -10.140625 L 4.625 -10.15625 L 4.71875 -9.953125 L 9.09375 -1.21875 L 9.234375 -0.921875 L 8.9375 -0.78125 L 7.796875 -0.21875 L 7.5 -0.046875 L 7.359375 -0.375 L 6.203125 -2.734375 L 2.3125 -2.421875 L 1.5625 0.109375 L 1.46875 0.421875 L 1.140625 0.328125 L 0.03125 -0.03125 L -0.3125 -0.109375 Z M 2.84375 -4.203125 L 5.375 -4.421875 L 3.828125 -7.546875 Z M 2.84375 -4.203125 "/></g></g></g><g fill="#1d321e" fill-opacity="1"><g transform="translate(210.024566, 331.569283)"><g><path d="M 1.421875 -5.0625 C 1.453125 -4.875 1.488281 -4.703125 1.53125 -4.546875 C 1.570312 -4.390625 1.617188 -4.234375 1.671875 -4.078125 C 1.734375 -3.929688 1.800781 -3.800781 1.875 -3.6875 C 2.082031 -3.289062 2.332031 -2.972656 2.625 -2.734375 C 2.71875 -2.640625 2.8125 -2.554688 2.90625 -2.484375 C 3.007812 -2.421875 3.117188 -2.363281 3.234375 -2.3125 C 3.347656 -2.269531 3.457031 -2.226562 3.5625 -2.1875 C 3.90625 -2.101562 4.269531 -2.097656 4.65625 -2.171875 C 5.039062 -2.242188 5.367188 -2.347656 5.640625 -2.484375 C 5.921875 -2.640625 6.1875 -2.828125 6.4375 -3.046875 L 6.71875 -3.3125 L 6.9375 -2.953125 L 7.515625 -1.984375 L 7.671875 -1.734375 L 7.4375 -1.546875 C 7.125 -1.296875 6.757812 -1.0625 6.34375 -0.84375 C 5.914062 -0.644531 5.410156 -0.492188 4.828125 -0.390625 C 4.179688 -0.265625 3.5625 -0.269531 2.96875 -0.40625 C 2.382812 -0.550781 1.851562 -0.804688 1.375 -1.171875 C 0.914062 -1.535156 0.519531 -2.015625 0.1875 -2.609375 C -0.132812 -3.191406 -0.367188 -3.867188 -0.515625 -4.640625 C -0.648438 -5.378906 -0.671875 -6.082031 -0.578125 -6.75 C -0.472656 -7.414062 -0.273438 -8.015625 0.015625 -8.546875 C 0.347656 -9.085938 0.773438 -9.539062 1.296875 -9.90625 C 1.546875 -10.070312 1.820312 -10.21875 2.125 -10.34375 C 2.425781 -10.476562 2.753906 -10.578125 3.109375 -10.640625 C 3.578125 -10.722656 4.007812 -10.753906 4.40625 -10.734375 C 4.800781 -10.722656 5.179688 -10.664062 5.546875 -10.5625 L 5.859375 -10.484375 L 5.8125 -10.171875 L 5.625 -9.046875 L 5.5625 -8.6875 L 5.203125 -8.78125 C 4.910156 -8.863281 4.628906 -8.921875 4.359375 -8.953125 C 4.265625 -8.953125 4.164062 -8.945312 4.0625 -8.9375 C 3.96875 -8.9375 3.867188 -8.929688 3.765625 -8.921875 C 3.660156 -8.910156 3.546875 -8.894531 3.421875 -8.875 C 3.234375 -8.832031 3.050781 -8.78125 2.875 -8.71875 C 2.707031 -8.65625 2.550781 -8.570312 2.40625 -8.46875 C 2.269531 -8.375 2.140625 -8.257812 2.015625 -8.125 C 1.898438 -8 1.796875 -7.851562 1.703125 -7.6875 C 1.617188 -7.53125 1.546875 -7.351562 1.484375 -7.15625 C 1.421875 -6.96875 1.375 -6.757812 1.34375 -6.53125 C 1.300781 -6.09375 1.328125 -5.601562 1.421875 -5.0625 Z M 1.421875 -5.0625 "/></g></g></g><g fill="#1d321e" fill-opacity="1"><g transform="translate(223.448227, 328.809093)"><g><path d="M -2.5 -9.40625 L 4.28125 -11.328125 L 4.59375 -11.421875 L 4.6875 -11.078125 L 4.984375 -10 L 5.078125 -9.6875 L 4.765625 -9.59375 L 2.296875 -8.890625 L 4.453125 -1.25 L 4.546875 -0.9375 L 4.234375 -0.859375 L 3 -0.5 L 2.6875 -0.421875 L 2.59375 -0.734375 L 0.4375 -8.375 L -2.015625 -7.671875 L -2.359375 -7.578125 L -2.453125 -7.890625 L -2.75 -8.96875 L -2.84375 -9.3125 Z M -2.5 -9.40625 "/></g></g></g><g fill="#1d321e" fill-opacity="1"><g transform="translate(235.864337, 325.00634)"><g><path d="M 0.828125 -0.296875 L -2.40625 -9.109375 L -2.53125 -9.4375 L -2.234375 -9.5625 L -1.03125 -10 L -0.71875 -10.109375 L -0.59375 -9.78125 L 2.640625 -0.96875 L 2.75 -0.65625 L 2.4375 -0.546875 L 1.234375 -0.109375 L 0.9375 0.015625 Z M 0.828125 -0.296875 "/></g></g></g><g fill="#1d321e" fill-opacity="1"><g transform="translate(244.615438, 321.642905)"><g><path d="M 0.125 -5.25 C 0.195312 -5.082031 0.269531 -4.925781 0.34375 -4.78125 C 0.425781 -4.644531 0.515625 -4.507812 0.609375 -4.375 C 0.710938 -4.25 0.8125 -4.132812 0.90625 -4.03125 C 1.207031 -3.695312 1.53125 -3.445312 1.875 -3.28125 C 1.976562 -3.21875 2.085938 -3.164062 2.203125 -3.125 C 2.328125 -3.082031 2.445312 -3.050781 2.5625 -3.03125 C 2.675781 -3.019531 2.789062 -3.015625 2.90625 -3.015625 C 3.269531 -3.003906 3.628906 -3.078125 3.984375 -3.234375 C 4.335938 -3.398438 4.628906 -3.59375 4.859375 -3.8125 C 5.085938 -4.03125 5.296875 -4.269531 5.484375 -4.53125 L 5.71875 -4.859375 L 7.015625 -3.5625 L 6.8125 -3.328125 C 6.582031 -3.015625 6.285156 -2.703125 5.921875 -2.390625 C 5.566406 -2.085938 5.117188 -1.8125 4.578125 -1.5625 C 3.984375 -1.289062 3.382812 -1.148438 2.78125 -1.140625 C 2.175781 -1.128906 1.601562 -1.242188 1.0625 -1.484375 C 0.507812 -1.722656 0 -2.085938 -0.46875 -2.578125 C -0.925781 -3.066406 -1.320312 -3.664062 -1.65625 -4.375 C -1.96875 -5.050781 -2.15625 -5.722656 -2.21875 -6.390625 C -2.289062 -7.066406 -2.242188 -7.703125 -2.078125 -8.296875 C -1.898438 -8.898438 -1.601562 -9.4375 -1.1875 -9.90625 C -0.976562 -10.132812 -0.742188 -10.347656 -0.484375 -10.546875 C -0.222656 -10.742188 0.0664062 -10.914062 0.390625 -11.0625 C 0.828125 -11.269531 1.238281 -11.410156 1.625 -11.484375 C 2.007812 -11.566406 2.394531 -11.601562 2.78125 -11.59375 L 3.078125 -11.609375 L 3.125 -11.296875 L 3.21875 -10.15625 L 3.234375 -9.78125 L 2.875 -9.78125 C 2.582031 -9.800781 2.296875 -9.785156 2.015625 -9.734375 C 1.921875 -9.722656 1.828125 -9.703125 1.734375 -9.671875 C 1.648438 -9.648438 1.554688 -9.617188 1.453125 -9.578125 C 1.347656 -9.535156 1.238281 -9.488281 1.125 -9.4375 C 0.945312 -9.363281 0.785156 -9.269531 0.640625 -9.15625 C 0.492188 -9.050781 0.363281 -8.929688 0.25 -8.796875 C 0.132812 -8.660156 0.0351562 -8.515625 -0.046875 -8.359375 C -0.128906 -8.210938 -0.191406 -8.050781 -0.234375 -7.875 C -0.273438 -7.695312 -0.300781 -7.507812 -0.3125 -7.3125 C -0.320312 -7.113281 -0.320312 -6.898438 -0.3125 -6.671875 C -0.257812 -6.222656 -0.113281 -5.75 0.125 -5.25 Z M 0.125 -5.25 "/></g></g></g><g fill="#1d321e" fill-opacity="1"><g transform="translate(256.974456, 315.662831)"><g><path d="M -0.375 -0.3125 L -1.78125 -9.984375 L -1.828125 -10.21875 L -1.625 -10.34375 L -0.421875 -11.046875 L -0.21875 -11.15625 L -0.046875 -11 L 7.671875 -5.015625 L 7.921875 -4.8125 L 7.71875 -4.5625 L 6.953125 -3.5625 L 6.75 -3.28125 L 6.484375 -3.515625 L 4.40625 -5.15625 L 1.046875 -3.1875 L 1.453125 -0.578125 L 1.515625 -0.25 L 1.171875 -0.203125 L 0.015625 -0.046875 L -0.328125 0.03125 Z M 0.75 -5.015625 L 2.9375 -6.296875 L 0.203125 -8.46875 Z M 0.75 -5.015625 "/></g></g></g><g fill="#1d321e" fill-opacity="1"><g transform="translate(269.496956, 307.95724)"><g><path d="M 5.703125 -3.703125 L 1.15625 -0.4375 L 0.890625 -0.25 L 0.703125 -0.515625 L -4.78125 -8.140625 L -4.984375 -8.40625 L -4.71875 -8.59375 L -3.671875 -9.34375 L -3.40625 -9.53125 L -3.203125 -9.265625 L 1.421875 -2.828125 L 4.65625 -5.15625 L 4.921875 -5.359375 L 5.109375 -5.09375 L 5.78125 -4.171875 L 5.96875 -3.90625 Z M 5.703125 -3.703125 "/></g></g></g><g fill="#1d321e" fill-opacity="1"><g transform="translate(279.499186, 300.413418)"><g/></g></g><g fill="#1d321e" fill-opacity="1"><g transform="translate(286.804264, 294.033996)"><g><path d="M 5.078125 -4.53125 L 1.09375 -0.609375 L 0.859375 -0.375 L 0.625 -0.609375 L -5.96875 -7.296875 L -6.203125 -7.546875 L -5.0625 -8.6875 L -4.828125 -8.90625 L -4.59375 -8.65625 L 0.96875 -3.015625 L 3.8125 -5.8125 L 4.046875 -6.046875 L 4.28125 -5.8125 L 5.078125 -5 L 5.3125 -4.765625 Z M 5.078125 -4.53125 "/></g></g></g><g fill="#1d321e" fill-opacity="1"><g transform="translate(295.528559, 285.048327)"><g><path d="M 0.578125 -0.65625 L -6.5 -6.828125 L -6.765625 -7.046875 L -6.546875 -7.296875 L -5.71875 -8.265625 L -5.5 -8.515625 L -5.234375 -8.296875 L 1.84375 -2.125 L 2.09375 -1.90625 L 1.875 -1.65625 L 1.046875 -0.6875 L 0.828125 -0.4375 Z M 0.578125 -0.65625 "/></g></g></g><g fill="#1d321e" fill-opacity="1"><g transform="translate(301.569032, 277.894244)"><g><path d="M -7.09375 -6.78125 L -3.765625 -11.25 L -3.5625 -11.515625 L -3.28125 -11.3125 L -2.40625 -10.65625 L -2.125 -10.453125 L -2.328125 -10.1875 L -4.6875 -7 L -2.9375 -5.6875 L -1 -8.296875 L -0.796875 -8.578125 L -0.515625 -8.375 L 0.3125 -7.75 L 0.578125 -7.5625 L 0.375 -7.28125 L -1.5625 -4.671875 L 1.6875 -2.25 L 1.953125 -2.046875 L 1.75 -1.78125 L 0.984375 -0.765625 L 0.78125 -0.5 L 0.515625 -0.703125 L -7.015625 -6.3125 L -7.296875 -6.515625 Z M -7.09375 -6.78125 "/></g></g></g><g fill="#1d321e" fill-opacity="1"><g transform="translate(309.076138, 267.398852)"><g><path d="M -7.671875 -6.125 L -4.71875 -10.921875 L -4.53125 -11.21875 L -4.234375 -11.03125 L -3.3125 -10.46875 L -3.015625 -10.28125 L -3.203125 -9.984375 L -5.3125 -6.546875 L -3.453125 -5.40625 L -1.65625 -8.328125 L -1.484375 -8.625 L -1.203125 -8.453125 L -0.28125 -7.890625 L 0 -7.71875 L -0.171875 -7.421875 L -1.96875 -4.5 L 0.25 -3.140625 L 2.359375 -6.578125 L 2.546875 -6.875 L 2.828125 -6.703125 L 3.765625 -6.125 L 4.046875 -5.953125 L 3.859375 -5.65625 L 0.90625 -0.859375 L 0.734375 -0.578125 L 0.453125 -0.75 L -7.546875 -5.65625 L -7.84375 -5.84375 Z M -7.671875 -6.125 "/></g></g></g></svg>